name Walk1.mot
datacolumns 19
datarows 25
range 1.99000000 2.01400000
endheader

                time	   L_ground_force_vx	   L_ground_force_vy	   L_ground_force_vz	   L_ground_force_px	   L_ground_force_py	   L_ground_force_pz	   R_ground_force_vx	   R_ground_force_vy	   R_ground_force_vz	   R_ground_force_px	   R_ground_force_py	   R_ground_force_pz	   L_ground_torque_x	   L_ground_torque_y	   L_ground_torque_z	   R_ground_torque_x	   R_ground_torque_y	   R_ground_torque_z	
          1.99000000	         -0.00000001	         -0.00000003	          0.00000000	          0.00000000	          0.00000000	          0.00000000	         -0.58085679	         -1.14742983	         -0.08470791	          0.09520373	          0.00000000	          0.01884913	          0.00000000	          0.00000000	          0.00000000	          0.00000000	          0.10897440	          0.00000000	
          1.99100000	         -0.00000001	         -0.00000003	          0.00000000	          0.00000000	          0.00000000	          0.00000000	         -0.69398175	         -1.76200019	         -0.11560209	          0.08691683	          0.00000000	          0.01755739	          0.00000000	          0.00000000	          0.00000000	          0.00000000	          0.13474599	          0.00000000	
          1.99200000	         -0.00000001	         -0.00000003	          0.00000000	          0.00000000	          0.00000000	          0.00000000	         -0.79486595	         -2.31765903	         -0.14343268	          0.07900609	          0.00000000	          0.01630913	          0.00000000	          0.00000000	          0.00000000	          0.00000000	          0.15781720	          0.00000000	
          1.99300000	         -0.00000001	         -0.00000003	          0.00000000	          0.00000000	          0.00000000	          0.00000000	         -0.88416895	         -2.81731555	         -0.16835500	          0.07146940	          0.00000000	          0.01510538	          0.00000000	          0.00000000	          0.00000000	          0.00000000	          0.17833045	          0.00000000	
          1.99400000	         -0.00000001	         -0.00000003	          0.00000000	          0.00000000	          0.00000000	          0.00000000	         -0.96253796	         -3.26384321	         -0.19052215	          0.06430344	          0.00000000	          0.01394689	          0.00000000	          0.00000000	          0.00000000	          0.00000000	          0.19642571	          0.00000000	
          1.99500000	         -0.00000001	         -0.00000003	          0.00000000	          0.00000000	          0.00000000	          0.00000000	         -1.03060651	         -3.66007193	         -0.21008462	          0.05750378	          0.00000000	          0.01283420	          0.00000000	          0.00000000	          0.00000000	          0.00000000	          0.21224018	          0.00000000	
          1.99600000	         -0.00000001	         -0.00000002	          0.00000000	          0.00000000	          0.00000000	          0.00000000	         -1.08899316	         -4.00878107	         -0.22718994	          0.05106496	          0.00000000	          0.01176762	          0.00000000	          0.00000000	          0.00000000	          0.00000000	          0.22590804	          0.00000000	
          1.99700000	         -0.00000001	         -0.00000002	          0.00000000	          0.00000000	          0.00000000	          0.00000000	         -1.13830049	         -4.31269325	         -0.24198240	          0.04498063	          0.00000000	          0.01074726	          0.00000000	          0.00000000	          0.00000000	          0.00000000	          0.23756015	          0.00000000	
          1.99800000	         -0.00000001	         -0.00000002	          0.00000000	          0.00000000	          0.00000000	          0.00000000	         -1.17911413	         -4.57446889	         -0.25460275	          0.03924365	          0.00000000	          0.00977304	          0.00000000	          0.00000000	          0.00000000	          0.00000000	          0.24732386	          0.00000000	
          1.99900000	         -0.00000001	         -0.00000002	          0.00000000	          0.00000000	          0.00000000	          0.00000000	         -1.21200202	         -4.79670142	         -0.26518798	          0.03384616	          0.00000000	          0.00884472	          0.00000000	          0.00000000	          0.00000000	          0.00000000	          0.25532283	          0.00000000	
          2.00000000	         -0.00000001	         -0.00000002	          0.00000000	          0.00000000	          0.00000000	          0.00000000	         -1.23751378	         -4.98191320	         -0.27387113	          0.02877968	          0.00000000	          0.00796191	          0.00000000	          0.00000000	          0.00000000	          0.00000000	          0.26167690	          0.00000000	
          2.00100000	         -0.00000001	         -0.00000002	          0.00000000	          0.00000000	          0.00000000	          0.00000000	         -1.25618014	         -5.13255201	         -0.28078110	          0.02403523	          0.00000000	          0.00712408	          0.00000000	          0.00000000	          0.00000000	          0.00000000	          0.26650190	          0.00000000	
          2.00200000	         -0.00000001	         -0.00000002	          0.00000000	          0.00000000	          0.00000000	          0.00000000	         -1.26851260	         -5.25098816	         -0.28604255	          0.01960335	          0.00000000	          0.00633056	          0.00000000	          0.00000000	          0.00000000	          0.00000000	          0.26990961	          0.00000000	
          2.00300000	         -0.00000001	         -0.00000002	          0.00000000	          0.00000000	          0.00000000	          0.00000000	         -1.27500309	         -5.33951211	         -0.28977576	          0.01547420	          0.00000000	          0.00558059	          0.00000000	          0.00000000	          0.00000000	          0.00000000	          0.27200766	          0.00000000	
          2.00400000	         -0.00000001	         -0.00000002	          0.00000000	          0.00000000	          0.00000000	          0.00000000	         -1.27612379	         -5.40033261	         -0.29209657	          0.01163766	          0.00000000	          0.00487329	          0.00000000	          0.00000000	          0.00000000	          0.00000000	          0.27289947	          0.00000000	
          2.00500000	         -0.00000001	         -0.00000002	          0.00000000	          0.00000000	          0.00000000	          0.00000000	         -1.27232702	         -5.43557530	         -0.29311628	          0.00808335	          0.00000000	          0.00420772	          0.00000000	          0.00000000	          0.00000000	          0.00000000	          0.27268423	          0.00000000	
          2.00600000	         -0.00000000	         -0.00000001	          0.00000000	          0.00000000	          0.00000000	          0.00000000	         -1.26404525	         -5.44728174	         -0.29294168	          0.00480069	          0.00000000	          0.00358284	          0.00000000	          0.00000000	          0.00000000	          0.00000000	          0.27145688	          0.00000000	
          2.00700000	         -0.00000000	         -0.00000001	          0.00000000	          0.00000000	          0.00000000	          0.00000000	         -1.25169109	         -5.43740883	         -0.29167496	          0.00177899	          0.00000000	          0.00299754	          0.00000000	          0.00000000	          0.00000000	          0.00000000	          0.26930811	          0.00000000	
          2.00800000	         -0.00000000	         -0.00000001	          0.00000000	          0.00000000	          0.00000000	          0.00000000	         -1.23565749	         -5.40782866	         -0.28941377	         -0.00099250	          0.00000000	          0.00245069	          0.00000000	          0.00000000	          0.00000000	          0.00000000	          0.26632439	          0.00000000	
          2.00900000	         -0.00000000	         -0.00000001	          0.00000000	          0.00000000	          0.00000000	          0.00000000	         -1.21631787	         -5.36032859	         -0.28625121	         -0.00352461	          0.00000000	          0.00194107	          0.00000000	          0.00000000	          0.00000000	          0.00000000	          0.26258798	          0.00000000	
          2.01000000	         -0.00000000	         -0.00000001	          0.00000000	          0.00000000	          0.00000000	          0.00000000	         -1.19402640	         -5.29661174	         -0.28227587	         -0.00582811	          0.00000000	          0.00146745	          0.00000000	          0.00000000	          0.00000000	          0.00000000	          0.25817699	          0.00000000	
          2.01100000	         -0.00000000	         -0.00000001	          0.00000000	          0.00000000	          0.00000000	          0.00000000	         -1.16911830	         -5.21829769	         -0.27757188	         -0.00791373	          0.00000000	          0.00102855	          0.00000000	          0.00000000	          0.00000000	          0.00000000	          0.25316546	          0.00000000	
          2.01200000	         -0.00000000	         -0.00000001	          0.00000000	          0.00000000	          0.00000000	          0.00000000	         -1.14191016	         -5.12692350	         -0.27221895	         -0.00979211	          0.00000000	          0.00062308	          0.00000000	          0.00000000	          0.00000000	          0.00000000	          0.24762337	          0.00000000	
          2.01300000	         -0.00000000	         -0.00000001	          0.00000000	          0.00000000	          0.00000000	          0.00000000	         -1.11270036	         -5.02394488	         -0.26629251	         -0.01147379	          0.00000000	          0.00024973	          0.00000000	          0.00000000	          0.00000000	          0.00000000	          0.24161678	          0.00000000	
          2.01400000	         -0.00000000	         -0.00000001	          0.00000000	          0.00000000	          0.00000000	          0.00000000	         -1.08176946	         -4.91073760	         -0.25986369	         -0.01296913	          0.00000000	         -0.00009282	          0.00000000	          0.00000000	          0.00000000	          0.00000000	          0.23520788	          0.00000000	
